<?xml version="1.0" encoding="UTF-8"?>
<svg width="29px" height="38px" viewBox="0 0 29 38" version="1.1" xmlns="http://www.w3.org/2000/svg" xmlns:xlink="http://www.w3.org/1999/xlink">
    <!-- Generator: Sketch 51.3 (57544) - http://www.bohemiancoding.com/sketch -->
    <title>share</title>
    <desc>Created with Sketch.</desc>
    <defs></defs>
    <g id="Page-1" stroke="none" stroke-width="1" fill="none" fill-rule="evenodd">
        <g id="首页" transform="translate(-1299.000000, -157.000000)">
            <g id="share" transform="translate(1299.000000, 157.000000)">
                <path d="M14.5,31 C22.5081289,31 29,23.5693848 29,15.1836735 C29,6.79796217 22.5081289,0 14.5,0 C6.49187113,0 0,6.79796217 0,15.1836735 C0,23.5693848 6.49187113,31 14.5,31 Z" id="Oval-5" fill="#FDD88F"></path>
                <polygon id="Rectangle-14" fill="#FDD88F" points="6 27 24 27 22.7142857 31 7.28571429 31"></polygon>
                <path d="" id="Path-8" stroke="#979797" stroke-width="0.66"></path>
                <rect id="Rectangle-16" fill="#888888" x="7" y="31" width="16" height="2" rx="1"></rect>
                <rect id="Rectangle-16-Copy" fill="#D2D2D2" x="8" y="33" width="14" height="3" rx="1.5"></rect>
                <rect id="Rectangle-16-Copy-2" fill="#D2D2D2" x="8" y="35" width="14" height="3" rx="1.5"></rect>
                <polyline id="Path-9" stroke="#FFFFFF" stroke-width="1.3" stroke-linecap="round" stroke-linejoin="round" points="10.8997114 25 9 14 14.4393888 19.5 20 14 17.7920268 25"></polyline>
            </g>
        </g>
    </g>
</svg>