<?xml version="1.0" standalone="no"?><!DOCTYPE svg PUBLIC "-//W3C//DTD SVG 1.1//EN" "http://www.w3.org/Graphics/SVG/1.1/DTD/svg11.dtd"><svg class="icon" width="200px" height="200.00px" viewBox="0 0 1024 1024" version="1.1" xmlns="http://www.w3.org/2000/svg"><path d="M817.4 957.5H207.2c-19.1 0-34.5-15.5-34.5-34.5V485.4c0-19.1 15.5-34.5 34.5-34.5h24.2V375c-0.7-8.4-1.2-16.8-1.2-25.4 0-155.8 126.3-282.1 282.1-282.1s282.1 126.3 282.1 282.1v101.3h23c19.1 0 34.5 15.5 34.5 34.5v437.5c0.1 19.1-15.4 34.6-34.5 34.6zM495.1 730.9v79.2h34.5v-79.2c33-7.8 57.6-37.4 57.6-72.8 0-41.3-33.5-74.8-74.8-74.8s-74.8 33.5-74.8 74.8c-0.1 35.4 24.5 65 57.5 72.8z m224.5-379v-2.3c0-114.5-92.8-207.2-207.2-207.2s-207.2 92.8-207.2 207.2v101.3h414.5v-99z" fill="#e3e1e1" /></svg>