<?xml version="1.0" encoding="UTF-8"?>
<svg width="30px" height="30px" viewBox="0 0 30 30" version="1.1" xmlns="http://www.w3.org/2000/svg" xmlns:xlink="http://www.w3.org/1999/xlink">
    <!-- Generator: Sketch 51.3 (57544) - http://www.bohemiancoding.com/sketch -->
    <title>第二名</title>
    <desc>Created with Sketch.</desc>
    <defs></defs>
    <g id="Page-1" stroke="none" stroke-width="1" fill="none" fill-rule="evenodd">
        <g id="活跃度" transform="translate(-1173.000000, -935.000000)" fill-rule="nonzero">
            <g id="生日快乐-copy" transform="translate(1149.000000, 822.000000)">
                <g id="第二名" transform="translate(24.000000, 113.000000)">
                    <path d="M0.0212766064,15 C0.0212766064,23.2725205 6.7274795,29.9787234 15,29.9787234 C23.2725205,29.9787234 29.9787234,23.2725205 29.9787234,15 C29.9787234,6.7274795 23.2725205,0.0212766064 15,0.0212766064 C6.7274795,0.0212766064 0.0212766064,6.7274795 0.0212766064,15 Z" id="Shape" fill="#F6F6F6"></path>
                    <path d="M8.68714893,19.0851064 L13.6382979,24.0362553 L7.69582979,29.9787234 L6.45668084,26.2667234 L2.74468085,25.0275745 L8.68714893,19.0851064 Z M21.3128511,19.0851064 L27.2553191,25.0275745 L23.5433192,26.2667234 L22.3041702,29.9787234 L16.3617021,24.0362553 L21.3128511,19.0851064 Z" id="Shape" fill="#9C9C9C"></path>
                    <path d="M16.3617021,2.16868085 L25.4306383,7.40442552 C26.2732411,7.89090248 26.7923157,8.78993971 26.7923404,9.76289362 L26.7923404,20.2357447 C26.7923404,21.2093617 26.2735319,22.1080851 25.4306383,22.5942128 L16.3617021,27.8313191 C15.5190027,28.3175278 14.4809973,28.3175278 13.6382979,27.8313191 L4.56936169,22.5955745 C3.72675889,22.1090975 3.20768429,21.2100603 3.20765959,20.2371064 L3.20765959,9.76425533 C3.20765959,8.7906383 3.7264681,7.89191489 4.56936169,7.40578723 L13.6382979,2.16868085 C14.4809973,1.68247223 15.5190027,1.68247223 16.3617021,2.16868085 Z" id="Shape" fill="#D3D3D3"></path>
                    <polygon id="Shape" fill="#DDDDDD" points="16.7661277 13.2965106 16.7457021 13.2706383 20.9996596 5.81804256 18.3388936 4.12953191 15 12.2779574 11.6229787 4.03829786 8.99625533 5.81123403 13.2542979 13.2706383 13.2338723 13.2965106 3.88578724 10.4900426 3.86127661 13.7908085 12.7191489 15.2382979 12.7382128 15.3213617 4.30519149 21.2883404 6.90195744 23.434383 13.9991489 16.8805106 13.3264681 27.2553191 16.6721702 27.2553191 15.9981277 16.8818723 23.0326809 23.3771915 25.6934468 21.2897021 17.2604255 15.3227234 17.2794894 15.2396596 26.0937872 13.7989787 25.9821277 10.5308936 16.7661277 13.2965106"></polygon>
                    <path d="M16.3617021,9.55319148 L19.0851064,9.55319148 L19.0851064,15 L16.3617021,15 L16.3617021,9.55319148 Z M10.9148936,13.6382979 L13.6382979,13.6382979 L13.6382979,19.0851064 L10.9148936,19.0851064 L10.9148936,13.6382979 Z" id="Shape" fill="#FFFFFF"></path>
                    <path d="M19.0851064,9.55319148 L19.0851064,12.2765958 L10.9148936,12.2765958 L10.9148936,9.55319148 L19.0851064,9.55319148 Z M19.0851064,17.7234042 L19.0851064,20.4468085 L10.9148936,20.4468085 L10.9148936,17.7234042 L19.0851064,17.7234042 Z M19.0851064,13.6382979 L19.0851064,16.3617021 L10.9148936,16.3617021 L10.9148936,13.6382979 L19.0851064,13.6382979 Z" id="Shape" fill="#FFFFFF"></path>
                    <path d="M15.6808511,3.34791488 C15.25969,3.10410708 14.74031,3.10410708 14.3191489,3.34791488 L5.25021278,8.58502127 C4.82944682,8.82876594 4.56936172,9.27812764 4.56936169,9.76425533 L4.56936169,20.2371064 C4.56936169,20.723234 4.82944679,21.1725957 5.25021278,21.4163404 L14.3191489,26.6520851 C14.74031,26.8958929 15.25969,26.8958929 15.6808511,26.6520851 L24.7497872,21.4163404 C25.1705532,21.1725957 25.4306383,20.723234 25.4306383,20.2371064 L25.4306383,9.76425533 C25.4306383,9.27812767 25.1705532,8.82876597 24.7497872,8.58502127 L15.6808511,3.34791488 Z M16.3617021,2.16868085 L25.4306383,7.40442552 C26.2732411,7.89090248 26.7923157,8.78993971 26.7923404,9.76289362 L26.7923404,20.2357447 C26.7923404,21.2093617 26.2735319,22.1080851 25.4306383,22.5942128 L16.3617021,27.8313191 C15.5190027,28.3175278 14.4809973,28.3175278 13.6382979,27.8313191 L4.56936169,22.5955745 C3.72675889,22.1090975 3.20768429,21.2100603 3.20765959,20.2371064 L3.20765959,9.76425533 C3.20765959,8.7906383 3.7264681,7.89191489 4.56936169,7.40578723 L13.6382979,2.16868085 C14.4809973,1.68247223 15.5190027,1.68247223 16.3617021,2.16868085 Z" id="Shape" fill="#B8B8B8"></path>
                </g>
            </g>
        </g>
    </g>
</svg>