<?xml version="1.0" encoding="UTF-8"?>
<svg width="35px" height="35px" viewBox="0 0 35 35" version="1.1" xmlns="http://www.w3.org/2000/svg" xmlns:xlink="http://www.w3.org/1999/xlink">
    <!-- Generator: Sketch 51.3 (57544) - http://www.bohemiancoding.com/sketch -->
    <title>other</title>
    <desc>Created with Sketch.</desc>
    <defs></defs>
    <g id="Page-1" stroke="none" stroke-width="1" fill="none" fill-rule="evenodd">
        <g id="标签页" transform="translate(-1358.000000, -240.000000)">
            <g id="圈子" transform="translate(1149.000000, 81.000000)">
                <g id="other" transform="translate(209.000000, 159.000000)">
                    <g id="appstore-o" transform="translate(2.554173, 2.554173)" fill="#D9F7BE" fill-rule="nonzero">
                        <path d="M11.1079925,0 L2.3945373,0 C1.07089029,0 0,1.07089029 0,2.3945373 L0,11.1079925 C0,12.4316395 1.07089029,13.5025298 2.3945373,13.5025298 L11.1079925,13.5025298 C12.4316395,13.5025298 13.5025298,12.4316395 13.5025298,11.1079925 L13.5025298,2.3945373 C13.5025298,1.07089029 12.4316395,0 11.1079925,0 Z M27.4041492,0 L18.690694,0 C17.367047,0 16.2961567,1.07089029 16.2961567,2.3945373 L16.2961567,11.1079925 C16.2961567,12.4316395 17.367047,13.5025298 18.690694,13.5025298 L27.4041492,13.5025298 C28.7277962,13.5025298 29.7986865,12.4316395 29.7986865,11.1079925 L29.7986865,2.3945373 C29.7986865,1.07089029 28.7277962,0 27.4041492,0 Z M11.1079925,16.2961567 L2.3945373,16.2961567 C1.07089029,16.2961567 0,17.367047 0,18.690694 L0,27.4041492 C0,28.7277962 1.07089029,29.7986865 2.3945373,29.7986865 L11.1079925,29.7986865 C12.4316395,29.7986865 13.5025298,28.7277962 13.5025298,27.4041492 L13.5025298,18.690694 C13.5025298,17.367047 12.4316395,16.2961567 11.1079925,16.2961567 Z M27.4041492,16.2961567 L18.690694,16.2961567 C17.367047,16.2961567 16.2961567,17.367047 16.2961567,18.690694 L16.2961567,27.4041492 C16.2961567,28.7277962 17.367047,29.7986865 18.690694,29.7986865 L27.4041492,29.7986865 C28.7277962,29.7986865 29.7986865,28.7277962 29.7986865,27.4041492 L29.7986865,18.690694 C29.7986865,17.367047 28.7277962,16.2961567 27.4041492,16.2961567 Z" id="Shape"></path>
                    </g>
                    <rect id="Rectangle-31" x="0" y="0" width="34.0556417" height="34.0556417"></rect>
                </g>
            </g>
        </g>
    </g>
</svg>