<?xml version="1.0" encoding="UTF-8"?>
<svg width="34px" height="31px" viewBox="0 0 34 31" version="1.1" xmlns="http://www.w3.org/2000/svg" xmlns:xlink="http://www.w3.org/1999/xlink">
    <!-- Generator: Sketch 51.3 (57544) - http://www.bohemiancoding.com/sketch -->
    <title>home</title>
    <desc>Created with Sketch.</desc>
    <defs></defs>
    <g id="Page-1" stroke="none" stroke-width="1" fill="none" fill-rule="evenodd">
        <g id="标签页" transform="translate(-1172.000000, -160.000000)" fill="#ADC6FF">
            <g id="圈子" transform="translate(1149.000000, 81.000000)">
                <g id="home" transform="translate(23.000000, 79.000000)">
                    <path d="M17.7961949,0.297774068 L33.5756706,14.0338362 C34.0814982,14.47416 34.1345994,15.2411673 33.6942756,15.7469948 C33.4636604,16.011917 33.1296304,16.1640038 32.7783938,16.1640038 L1.21944233,16.1640038 C0.548810845,16.1640038 0.0051566129,15.6203495 0.0051566129,14.9497181 C0.0051566129,14.5984815 0.157243399,14.2644514 0.422165541,14.0338362 L16.2016413,0.297774068 C16.6587016,-0.100097781 17.3391345,-0.100097781 17.7961949,0.297774068 Z" id="Triangle"></path>
                    <path d="M21.1488095,31 L21.1488095,22.3242787 C21.1488095,20.1447264 19.3819333,18.3778502 17.202381,18.3778502 C15.0228286,18.3778502 13.2559524,20.1447264 13.2559524,22.3242787 L13.2559524,31 L6.57738095,31 C5.79497756,31 5.16071429,30.3657367 5.16071429,29.5833333 L5.16071429,15.1465798 L27.625,15.1465798 C28.4074034,15.1465798 29.0416667,15.7808431 29.0416667,16.5632465 L29.0416667,29.5833333 C29.0416667,30.3657367 28.4074034,31 27.625,31 L21.1488095,31 Z" id="Combined-Shape"></path>
                </g>
            </g>
        </g>
    </g>
</svg>