<svg xmlns="http://www.w3.org/2000/svg" viewBox="0 0 157 82.5"><defs><style>.cls-1{fill:#cd5749;}.cls-2{fill:#f7f7f7;}.cls-3{fill:#e0e0e0;opacity:0.7;}.cls-4{fill:#c2332b;}</style></defs><title>圣诞帽</title><g id="图层_2" data-name="图层 2"><g id="图层_1-2" data-name="图层 1"><path class="cls-1" d="M150,44.5s-14-50-71-44c-58,6.1-70,60-70,60l17,7Z"/><circle class="cls-2" cx="11.5" cy="71" r="11.5"/><path class="cls-3" d="M19.86,63.16S19,69.5,23,72.5C24.15,67.14,22,64.5,19.86,63.16Z"/><path class="cls-4" d="M29,56.5c1-8,9.42-22.42,11-24,1-1,3-2,0,3-2.77,4.62-9,19-9,21S29,56.5,29,56.5Z"/><path class="cls-2" d="M25,55.72s.79-4.7,7.9-4.7c1.58-1.57,4-3.14,7.9-1.57,1.58-1.57,1.58-4.7,6.32-7.05S56.64,44,56.64,44s4-8.62,18.17-2.35c0,0,4.74-8.62,19-3.91,0,0,7.9-7.06,19.76.78,0,0,3.16-2.35,7.11.78,0,0,6.32-3.13,11.06,1.57,0,0,3.16-2.35,6.32-1.57s4,2.35,4,2.35,4.74-.78,7.11,1.57c0,0,4-2.35,5.53,3.92.79.78,2.37,1.57,2.37,5.48s-1.58,5.49-2.37,6.27-3.16.79-3.16.79-16.6,3.92-24.5.78a23.22,23.22,0,0,1-4.74-2.35s-1.58,3.13-9.48,2.35c-2.38.78-7.91,1.57-9.49-1.57-1.58.79-5.53-.78-5.53-.78A10.53,10.53,0,0,1,84.3,59.64c-2.37,2.35-4,4.7-11.07,2.35,0,0-3.16,3.92-11.85,1.57,0,0-4.74,6.27-11.86,3.91,0,0-4.74,6.27-11.85,3.92-.79.79-7.11,5.49-12.64,1.57S21.87,61.2,21.87,61.2A4.92,4.92,0,0,1,25,55.72Z"/></g></g></svg>