<?xml version="1.0" encoding="UTF-8"?>
<svg width="37px" height="36px" viewBox="0 0 37 36" version="1.1" xmlns="http://www.w3.org/2000/svg" xmlns:xlink="http://www.w3.org/1999/xlink">
    <!-- Generator: Sketch 51.3 (57544) - http://www.bohemiancoding.com/sketch -->
    <title>discuss</title>
    <desc>Created with Sketch.</desc>
    <defs></defs>
    <g id="Page-1" stroke="none" stroke-width="1" fill="none" fill-rule="evenodd">
        <g id="标签页" transform="translate(-1172.000000, -239.000000)">
            <g id="圈子" transform="translate(1149.000000, 81.000000)">
                <g id="discuss" transform="translate(23.000000, 158.000000)">
                    <rect id="Rectangle-43-Copy-5" x="1" y="1" width="35.3824848" height="33.6956455"></rect>
                    <g id="message" transform="translate(1.000000, 1.000000)" fill-rule="nonzero">
                        <path d="M33.9780249,9.64387643 C34.9074155,11.6063507 35.3807482,13.6910668 35.3772932,15.8418593 C35.3772932,17.992652 34.9074155,20.0740641 33.97457,22.0365385 C33.0762742,23.9263285 31.7944754,25.6178889 30.1637233,27.0715736 C28.5398811,28.5186507 26.6500052,29.6551678 24.5459203,30.4480867 C22.3727358,31.2641324 20.0648069,31.6804149 17.6877783,31.6804149 C15.7979024,31.6804149 13.9425763,31.4161086 12.1667148,30.8941036 L7.04297448,33.6792313 C6.8529504,33.78165 6.63874141,33.8345113 6.42798744,33.8345113 C6.23796335,33.8345113 6.04448429,33.7915615 5.86828013,33.705662 C5.49514191,33.5272552 5.24292813,33.1803532 5.19455837,32.7838937 L4.39645719,26.2885662 C1.55991583,23.3944121 0.00171833103,19.7007314 0.00171833103,15.8385555 C0.00171833103,13.6910668 0.475051046,11.6063508 1.4044416,9.64387643 C2.30273727,7.75408631 3.5845361,6.06252595 5.21528826,4.60884124 C6.83913046,3.16176421 8.72900638,2.02524708 10.8330913,1.23232817 C13.0062758,0.416282447 15.3142047,0 17.6912333,0 C20.0682618,0 22.3761907,0.416282447 24.5493753,1.23232817 C26.6534602,2.02524708 28.5433361,3.16176421 30.1671783,4.60884124 C31.8013854,6.06252595 33.0831842,7.75739016 33.9780249,9.64387643 Z" id="Shape" fill="#FFD591"></path>
                        <path d="M8.55081457,13.6732465 C7.28777488,13.6732465 6.26570992,14.6505964 6.26570992,15.8583785 C6.26570992,17.0661606 7.29192965,18.0435105 8.55081457,18.0435105 C9.81385426,18.0435105 10.8359192,17.0661605 10.8359193,15.8583785 C10.8359193,14.6505965 9.81385426,13.6732465 8.55081457,13.6732465 Z M26.831652,13.6732465 C25.5686123,13.6732465 24.5465473,14.6505964 24.5465473,15.8583785 C24.5465472,17.0661606 25.572767,18.0435105 26.831652,18.0435105 C28.0905369,18.0435105 29.1126019,17.0661605 29.1167566,15.8583785 C29.1167566,14.6505964 28.0905369,13.6732465 26.831652,13.6732465 Z M17.6912333,13.6732465 C16.4281936,13.6732465 15.4061286,14.6505964 15.4061286,15.8583785 C15.4061285,17.0661606 16.4323483,18.0435105 17.6912333,18.0435105 C18.9501182,18.0435105 19.9763379,17.0661605 19.9763379,15.8583785 C19.9763379,14.6505965 18.9501182,13.6732465 17.6912333,13.6732465 Z" id="Shape" fill="#FFFFFF"></path>
                    </g>
                </g>
            </g>
        </g>
    </g>
</svg>