<svg xmlns="http://www.w3.org/2000/svg" viewBox="0 0 179.47 44.17"><defs><style>.cls-1{fill:none;stroke:#ffe94d;stroke-miterlimit:10;stroke-width:8px;}.cls-2{fill:#fff;stroke:#bde9ff;stroke-linecap:round;stroke-linejoin:round;stroke-width:3px;}</style></defs><title>Angel</title><g id="图层_2" data-name="图层 2"><g id="图层_1-2" data-name="图层 1"><ellipse class="cls-1" cx="89.93" cy="18.5" rx="44" ry="14.5"/><path class="cls-2" d="M41.91,7.57c-9.77,2.32-25.76,7.27-12.62,12.66,6.25,1.55,4.64,3.5,10,1.73,0,0-14.12,4.4-2,10.78a10.13,10.13,0,0,0,6.24,1.55s-3,10,6.7,8.15c5.85-.73,14.55.85,16.29-2.27C67.75,38,64.7,23,53.6,11.05A12.12,12.12,0,0,0,41.91,7.57Z" transform="translate(-22.82)"/><path class="cls-2" d="M183.2,7.57C193,9.89,209,14.84,195.82,20.23c-6.25,1.55-4.64,3.5-10,1.73,0,0,14.11,4.4,2,10.78a10.18,10.18,0,0,1-6.25,1.55s3,10-6.7,8.15c-5.85-.73-14.55.85-16.29-2.27C157.36,38,160.41,23,171.51,11.05A12.12,12.12,0,0,1,183.2,7.57Z" transform="translate(-22.82)"/></g></g></svg>