<?xml version="1.0" encoding="UTF-8"?>
<svg width="31px" height="34px" viewBox="0 0 31 34" version="1.1" xmlns="http://www.w3.org/2000/svg" xmlns:xlink="http://www.w3.org/1999/xlink">
    <!-- Generator: Sketch 51.3 (57544) - http://www.bohemiancoding.com/sketch -->
    <title>tucao</title>
    <desc>Created with Sketch.</desc>
    <defs></defs>
    <g id="Page-1" stroke="none" stroke-width="1" fill="none" fill-rule="evenodd">
        <g id="标签页" transform="translate(-1238.000000, -239.000000)">
            <g id="圈子" transform="translate(1149.000000, 81.000000)">
                <g id="tucao" transform="translate(104.500000, 175.000000) rotate(-360.000000) translate(-104.500000, -175.000000) translate(89.000000, 158.000000)">
                    <path d="M8.17124146e-14,30.3912733 L15.4388954,0.894736842 L16.0133367,0.894736842 L31,30.9997458 C26.4570227,32.9300237 21.4451544,34 16.1783173,34 C10.3816293,34 4.89379103,32.7039128 8.79296636e-14,30.3912733 Z" id="Combined-Shape" fill-opacity="0.862318841" fill="#A1C891"></path>
                    <path d="M1.69414205,26.2861965 L15.2434622,-3.33066907e-16 L16.0079654,0 L29.1332807,26.7731215 C25.0974754,28.5434847 20.6353415,29.5263158 15.9428571,29.5263158 C10.8362975,29.5263158 6.00253541,28.3623773 1.69414205,26.2861965 Z" id="Combined-Shape" fill="#EF8772"></path>
                    <path d="M22.0659248,20.9986167 C21.6421373,21.0272735 21.2805851,20.6072313 21.2583753,20.0604261 C21.2361656,19.5136209 21.516082,17.9237874 21.9398695,17.8951306 C22.363657,17.8664738 22.7708358,19.4098453 22.7930455,19.9566505 C22.8152553,20.5034557 22.4897122,20.9699598 22.0659248,20.9986167 Z" id="Oval-3-Copy-6" fill="#000000"></path>
                    <path d="M15.103584,20.5777516 C14.615151,20.6025228 14.1984467,20.2394354 14.1728491,19.7667733 C14.1472514,19.2941112 14.4698669,17.9198484 14.9582999,17.8950772 C15.446733,17.870306 15.9160238,19.2044068 15.9416215,19.6770689 C15.9672192,20.1497311 15.592017,20.5529804 15.103584,20.5777516 Z" id="Oval-3-Copy-5" fill="#000000"></path>
                    <path d="M18.7575246,27.7235717 C18.2783363,27.8064309 17.8213817,27.4926581 17.7368878,27.0227408 C17.652394,26.5528234 17.7987772,25.1393348 18.2779655,25.0564756 C18.7571538,24.9736165 19.3876883,26.252764 19.4721821,26.7226814 C19.5566759,27.1925988 19.2367129,27.6407126 18.7575246,27.7235717 Z" id="Oval-3-Copy-3" fill="#000000"></path>
                    <path d="M15.2820279,13.3949614 C14.8150383,13.5113944 14.3420803,13.227214 14.2256467,12.7602266 C14.1092131,12.2932392 14.1541996,10.8609281 14.6211892,10.744495 C15.0881788,10.628062 15.8003322,11.8715979 15.9167658,12.3385853 C16.0331994,12.8055727 15.7490175,13.2785284 15.2820279,13.3949614 Z" id="Oval-3-Copy-4" fill="#000000"></path>
                    <path d="M8.66384242,24.5256995 C8.24949092,24.4597198 7.95483579,23.9706151 8.00571176,23.4332536 C8.05658772,22.895892 8.53824613,21.4098328 8.95259763,21.4758125 C9.36694912,21.5417922 9.55708721,23.1348256 9.50621125,23.6721872 C9.45533528,24.2095487 9.07819391,24.5916792 8.66384242,24.5256995 Z" id="Oval-3-Copy" fill="#000000"></path>
                </g>
            </g>
        </g>
    </g>
</svg>