<?xml version="1.0" standalone="no"?><!DOCTYPE svg PUBLIC "-//W3C//DTD SVG 1.1//EN" "http://www.w3.org/Graphics/SVG/1.1/DTD/svg11.dtd"><svg class="icon" width="200px" height="200.00px" viewBox="0 0 1024 1024" version="1.1" xmlns="http://www.w3.org/2000/svg"><path d="M512 1255.489906" fill="#e3e1e1" /><path d="M678.811913 298.624026c0-92.002399-74.809514-166.811913-166.811913-166.811913s-166.811913 74.809514-166.811913 166.811913 74.809514 166.811913 166.811913 166.811913S678.811913 390.626424 678.811913 298.624026z" fill="#e3e1e1" /><path d="M512 510.464921c-192.703578 0-350.612033 151.563462-360.743554 341.708575 31.827304 8.391765 109.297621 26.505697 213.785329 36.841895 80.94983 7.982411 162.206676 9.619828 241.314411 5.014591 92.002399-5.321607 181.548671-19.341995 266.387368-41.447132C862.81671 662.23306 704.805916 510.464921 512 510.464921z" fill="#e3e1e1" /><path d="M918.284229 871.720168c0-54.853488-10.745553-108.069558-31.929642-158.113132-20.467719-48.406156-49.736558-91.797721-87.090146-129.151309-37.353588-37.353588-80.745153-66.622427-129.151309-87.090146-16.06716-6.754347-32.441335-12.485309-49.122526-17.192884C682.598441 443.126124 723.840895 375.684989 723.840895 298.624026c0-116.768339-95.072556-211.840895-211.840895-211.840895s-211.840895 95.072556-211.840895 211.840895c0 76.958625 41.242455 144.502099 102.85029 181.548671-16.681191 4.605237-33.055367 10.336198-49.122526 17.192884-48.406156 20.467719-91.797721 49.736558-129.151309 87.090146-37.353588 37.353588-66.622427 80.745153-87.090146 129.151309-21.18409 50.145912-31.929642 103.361983-31.929642 158.113132 0 11.6666 8.903458 21.286428 20.263042 22.412153 71.534679 4.40056 678.402558 9.005797 777.773336-1.125725l0-0.204677C912.246252 889.629422 918.284229 881.442335 918.284229 871.720168z" fill="#e3e1e1" /></svg>