<svg xmlns="http://www.w3.org/2000/svg" viewBox="0 0 167 204.48"><defs><style>.cls-1{fill:#422e1a;}.cls-2{fill:#caac94;}.cls-3{fill:#d74f43;}.cls-4{fill:#4b2e0e;}.cls-5{fill:#866955;}.cls-6{fill:none;}</style></defs><title>驯鹿_2</title><g id="图层_2" data-name="图层 2"><g id="图层_1-2" data-name="图层 1"><path class="cls-1" d="M24.33,7.1s-14.87,9.21,8.83,23c0,.9-1.89,1.72-6.3-.3s-13.8,5.66-5.05,11.49c7,4.84,17.09.81,21.85-4.38,0,0,1.8.09,5.31,2.06,0,0,3.68-1.63,15.55-4.67,0,0-12.38-5.1-17.61-8.95,0,0,4.93-8.79-4.84-12a3,3,0,0,0-2.91,4.37S34.87,13,33.28,8.43C31.66,4.74,24.33,7.1,24.33,7.1Z"/><path class="cls-1" d="M131.67,0s16.83,4.78-2.18,24.51c.29.85,2.29,1.13,6-2s14.82,1.65,8,9.66c-5.38,6.57-16.21,5.47-22.21,1.79,0,0-1.71.58-4.54,3.44,0,0-4-.55-16.24-.22,0,0,10.5-8.3,14.47-13.45,0,0-7.15-7.09,1.38-12.82a3,3,0,0,1,4,3.4s2.82-5.71,3.09-10.55C124-.25,131.67,0,131.67,0Z"/><path class="cls-2" d="M83.5,61a83.5,83.5,0,0,1,82.13,68.5A83.49,83.49,0,1,0,0,114.48a84.28,84.28,0,0,0,1.37,15A83.5,83.5,0,0,1,83.5,61Z"/><ellipse class="cls-3" cx="83.5" cy="58.48" rx="19.08" ry="12.5"/><circle class="cls-4" cx="43" cy="54.98" r="6"/><circle class="cls-4" cx="124" cy="54.98" r="6"/><path class="cls-2" d="M.49,39.62s9.83,7.77,20.05,1.4,20.87,2.56,20.87,2.56S23.44,53.69,18.8,63C18.8,63-1.73,58.52.49,39.62Z"/><path class="cls-5" d="M11.14,48.55s1.77,7.4,11,7c0,0,9.4-7.53,12.7-9a18.57,18.57,0,0,0-11.18.11C17.22,48.57,18.2,48.74,11.14,48.55Z"/><path class="cls-2" d="M161.48,34.34s-9.28,8.43-19.91,2.77-20.64,4-20.64,4S139.54,50,144.82,59C144.82,59,165,53,161.48,34.34Z"/><path class="cls-5" d="M151.47,44S150.2,51.48,141,51.66c0,0-9.89-6.86-13.28-8.09a18.55,18.55,0,0,1,11.16-.65C145.4,44.42,144.43,44.65,151.47,44Z"/><circle class="cls-6" cx="84" cy="121.98" r="82.5"/></g></g></svg>