<?xml version="1.0" encoding="UTF-8"?>
<svg width="34px" height="9px" viewBox="0 0 34 9" version="1.1" xmlns="http://www.w3.org/2000/svg" xmlns:xlink="http://www.w3.org/1999/xlink">
    <!-- Generator: Sketch 51.3 (57544) - http://www.bohemiancoding.com/sketch -->
    <title>Angel</title>
    <desc>Created with Sketch.</desc>
    <defs></defs>
    <g id="Page-1" stroke="none" stroke-width="1" fill="none" fill-rule="evenodd">
        <g id="话题详情a" transform="translate(-422.000000, -656.000000)">
            <g id="Group-7" transform="translate(422.000000, 657.000000)">
                <g id="Group-6" transform="translate(1.000000, 0.000000)">
                    <g id="Angel">
                        <ellipse id="Oval" stroke="#FFE94D" stroke-width="1.44" cx="16.0777401" cy="2.6025641" rx="7.95480226" ry="2.6025641"></ellipse>
                        <path d="M3.27050847,0.640769231 C1.50418079,1.05717949 -1.38666667,1.94564102 0.988926555,2.91307692 C2.11887005,3.19128205 1.82779661,3.54128205 2.79683616,3.22358974 C2.79683616,3.22358974 0.244067797,4.01333334 2.43525424,5.15846154 C2.77089172,5.37035911 3.16689176,5.46801514 3.56338983,5.43666666 C3.56338983,5.43666666 3.02101695,7.23153846 4.77468926,6.89948718 C5.83231639,6.76846154 7.40519774,7.05205128 7.71977401,6.49205128 C7.94214689,6.1025641 7.39073446,3.41025641 5.3839548,1.26538462 C4.84401099,0.694786722 4.03687808,0.456243813 3.27050847,0.640769231 Z" id="Shape" stroke="#BDE9FF" stroke-width="0.54" fill="#FFFFFF" fill-rule="nonzero" stroke-linecap="round" stroke-linejoin="round"></path>
                        <path d="M28.8144633,0.640769231 C30.5862147,1.05717949 33.47887,1.94564102 31.0960452,2.91307692 C29.9661017,3.19128205 30.2571751,3.54128205 29.2881356,3.22358974 C29.2881356,3.22358974 31.839096,4.01333334 29.6497175,5.15846154 C29.3133123,5.37013382 28.916821,5.46775454 28.519774,5.43666666 C28.519774,5.43666666 29.0621469,7.23153846 27.3084746,6.89948718 C26.2508475,6.76846154 24.6779661,7.05205128 24.3633898,6.49205128 C24.1428249,6.1025641 24.6942373,3.41025641 26.701017,1.26538462 C27.2409607,0.694786722 28.0480937,0.456243813 28.8144633,0.640769231 Z" id="Shape" stroke="#BDE9FF" stroke-width="0.54" fill="#FFFFFF" fill-rule="nonzero" stroke-linecap="round" stroke-linejoin="round"></path>
                    </g>
                </g>
            </g>
        </g>
    </g>
</svg>