<?xml version="1.0" encoding="UTF-8"?>
<svg width="30px" height="24px" viewBox="0 0 30 24" version="1.1" xmlns="http://www.w3.org/2000/svg" xmlns:xlink="http://www.w3.org/1999/xlink">
    <!-- Generator: Sketch 51.3 (57544) - http://www.bohemiancoding.com/sketch -->
    <title>驯鹿_2</title>
    <desc>Created with Sketch.</desc>
    <defs></defs>
    <g id="Page-1" stroke="none" stroke-width="1" fill="none" fill-rule="evenodd">
        <g id="话题详情a" transform="translate(-424.000000, -653.000000)">
            <g id="Group-7" transform="translate(422.000000, 653.000000)">
                <g id="Group-6" transform="translate(2.000000, 0.000000)">
                    <g id="驯鹿_2">
                        <path d="M4.37065868,1.45485437 C4.37065868,1.45485437 1.6994012,3.10907767 5.95688623,5.58592233 C5.95688623,5.74757282 5.61736527,5.89485437 4.8251497,5.53203883 C4.03293413,5.1692233 2.34610778,6.54864078 3.91796407,7.5957767 C5.1754491,8.46509709 6.98802395,7.74126214 7.84311377,6.80907767 C7.84311377,6.80907767 8.16646707,6.82524272 8.79700599,7.17907767 C8.79700599,7.17907767 9.45808383,6.88631068 11.5904192,6.34029126 C11.5904192,6.34029126 9.36646707,5.42427184 8.42694611,4.73276699 C8.42694611,4.73276699 9.31257485,3.15398058 7.55748503,2.57742718 C7.36207695,2.5613318 7.17334346,2.6526168 7.06466956,2.81578796 C6.95599566,2.97895913 6.94452992,3.18826831 7.03473054,3.3623301 C7.03473054,3.3623301 6.26407186,2.51456311 5.97844311,1.69373786 C5.68742515,1.03097087 4.37065868,1.45485437 4.37065868,1.45485437 Z" id="Shape" fill="#422E1A" fill-rule="nonzero"></path>
                        <path d="M23.6532934,0.17961165 C23.6532934,0.17961165 26.6766467,1.03815534 23.2616766,4.5818932 C23.3137725,4.73456311 23.6730539,4.78485437 24.339521,4.2226699 C25.005988,3.66048544 27.0017964,4.51902913 25.7766467,5.95771845 C24.8101796,7.13776699 22.8646707,6.94019417 21.7868263,6.2792233 C21.7868263,6.2792233 21.4796407,6.38339806 20.9712575,6.89708738 C20.9712575,6.89708738 20.2526946,6.79830097 18.0538922,6.85757282 C18.0538922,6.85757282 19.9401198,5.36679612 20.6532934,4.44179612 C20.6532934,4.44179612 19.3688623,3.16834951 20.9011976,2.13917476 C21.0846099,2.06996896 21.2911423,2.10580233 21.4405117,2.23274575 C21.589881,2.35968917 21.6585251,2.55771792 21.6197605,2.74985437 C21.6197605,2.74985437 22.1263473,1.72427184 22.1748503,0.854951456 C22.2754491,0.134708738 23.6532934,0.17961165 23.6532934,0.17961165 Z" id="Shape" fill="#422E1A" fill-rule="nonzero"></path>
                        <path d="M15,11.1359223 C22.2441607,11.1369325 28.452546,16.3141587 29.7538922,23.4393204 C30.7711586,17.8522114 28.5445491,12.1698949 24.0020749,8.76065912 C19.4596007,5.35142338 13.3806965,4.80025291 8.29894142,7.33686573 C3.2171863,9.87347855 0.00454917931,15.062622 0,20.7415534 C0.00144763106,21.6451559 0.0838124067,22.5468141 0.246107784,23.4357282 C1.54898593,16.3119945 7.75696887,11.1366154 15,11.1359223 Z" id="Shape" fill="#CAAC94" fill-rule="nonzero"></path>
                        <ellipse id="Oval" fill="#D74F43" fill-rule="nonzero" cx="15" cy="10.683301" rx="3.42754491" ry="2.24514563"></ellipse>
                        <ellipse id="Oval" fill="#4B2E0E" fill-rule="nonzero" cx="7.7245509" cy="10.0546602" rx="1.07784431" ry="1.0776699"></ellipse>
                        <ellipse id="Oval" fill="#4B2E0E" fill-rule="nonzero" cx="22.2754491" cy="10.0546602" rx="1.07784431" ry="1.0776699"></ellipse>
                        <path d="M0.0880239521,7.29582524 C0.0880239521,7.29582524 1.85389222,8.69140777 3.68982036,7.54728155 C5.5257485,6.40315534 7.43892216,8.00708738 7.43892216,8.00708738 C7.43892216,8.00708738 4.21077844,9.82296117 3.37724551,11.4951456 C3.37724551,11.4951456 -0.310778443,10.6904854 0.0880239521,7.29582524 Z" id="Shape" fill="#CAAC94" fill-rule="nonzero"></path>
                        <path d="M2.0011976,8.89975728 C2.0011976,8.89975728 2.31916168,10.2288835 3.97724551,10.1570388 C3.97724551,10.1570388 5.66586826,8.80456311 6.25868263,8.54053398 C5.60308769,8.34067839 4.90183442,8.3475769 4.2502994,8.56029126 C3.09341317,8.90334951 3.26946108,8.9338835 2.0011976,8.89975728 Z" id="Shape" fill="#866955" fill-rule="nonzero"></path>
                        <path d="M29.0083832,6.34747573 C29.0083832,6.34747573 27.3413174,7.86160194 25.4317365,6.845 C23.5221557,5.82839806 21.7239521,7.5634466 21.7239521,7.5634466 C21.7239521,7.5634466 25.0670659,9.16019417 26.0155689,10.776699 C26.0155689,10.776699 29.6407186,9.69902913 29.0083832,6.34747573 Z" id="Shape" fill="#CAAC94" fill-rule="nonzero"></path>
                        <path d="M27.2101796,8.08252427 C27.2101796,8.08252427 26.9820359,9.42601942 25.3293413,9.45834951 C25.3293413,9.45834951 23.5526946,8.22621359 22.9437126,8.00529126 C23.5840704,7.76118395 24.2841312,7.72041639 24.948503,7.88854369 C26.1197605,8.15796117 25.945509,8.19927184 27.2101796,8.08252427 Z" id="Shape" fill="#866955" fill-rule="nonzero"></path>
                        <ellipse id="Oval" cx="15.0898204" cy="22.0886408" rx="14.8203593" ry="14.8179612"></ellipse>
                    </g>
                </g>
            </g>
        </g>
    </g>
</svg>