<?xml version="1.0" encoding="UTF-8"?>
<svg width="32px" height="17px" viewBox="0 0 32 17" version="1.1" xmlns="http://www.w3.org/2000/svg" xmlns:xlink="http://www.w3.org/1999/xlink">
    <!-- Generator: Sketch 51.3 (57544) - http://www.bohemiancoding.com/sketch -->
    <title>圣诞帽</title>
    <desc>Created with Sketch.</desc>
    <defs></defs>
    <g id="Page-1" stroke="none" stroke-width="1" fill="none" fill-rule="evenodd">
        <g id="话题详情a" transform="translate(-421.000000, -653.000000)" fill-rule="nonzero">
            <g id="Group-7" transform="translate(421.000000, 653.000000)">
                <g id="Group-6">
                    <g id="圣诞帽">
                        <path d="M30.3797468,9.11445783 C30.3797468,9.11445783 27.5443038,-1.12650602 16,0.102409639 C4.25316456,1.35180723 1.82278481,12.3915663 1.82278481,12.3915663 L5.26582278,13.8253012 L30.3797468,9.11445783 Z" id="Shape" fill="#CD5749"></path>
                        <ellipse id="Oval" fill="#F7F7F7" cx="2.32911392" cy="14.5421687" rx="2.32911392" ry="2.35542169"></ellipse>
                        <path d="M4.02227848,12.9363855 C4.02227848,12.9363855 3.84810127,14.2349398 4.65822785,14.8493976 C4.89113924,13.7515663 4.4556962,13.2108434 4.02227848,12.9363855 Z" id="Shape" fill="#E0E0E0" opacity="0.7"></path>
                        <path d="M5.87341772,11.5722892 C6.07594937,9.93373494 7.78126582,6.98024096 8.10126582,6.65662651 C8.30379747,6.45180723 8.70886076,6.24698795 8.10126582,7.27108434 C7.54025316,8.2173494 6.27848101,11.1626506 6.27848101,11.5722892 C6.27848101,11.9819277 5.87341772,11.5722892 5.87341772,11.5722892 Z" id="Shape" fill="#C2332B"></path>
                        <path d="M5.06329114,11.4125301 C5.06329114,11.4125301 5.22329114,10.4498795 6.66329114,10.4498795 C6.98329114,10.1283133 7.47341772,9.80674699 8.26329114,10.1283133 C8.58329114,9.80674699 8.58329114,9.16566265 9.54329114,8.68433735 C10.5032911,8.20301205 11.4713924,9.01204819 11.4713924,9.01204819 C11.4713924,9.01204819 12.281519,7.24650602 15.1513924,8.53072289 C15.1513924,8.53072289 16.1113924,6.76518072 18.9994937,7.72987952 C18.9994937,7.72987952 20.5994937,6.28385542 23.001519,7.88963855 C23.001519,7.88963855 23.641519,7.40831325 24.441519,8.04939759 C24.441519,8.04939759 25.721519,7.40831325 26.681519,8.37096386 C26.681519,8.37096386 27.321519,7.88963855 27.961519,8.04939759 C28.601519,8.20915663 28.7716456,8.53072289 28.7716456,8.53072289 C28.7716456,8.53072289 29.7316456,8.37096386 30.2116456,8.85228916 C30.2116456,8.85228916 31.0217722,8.37096386 31.3316456,9.65518072 C31.4916456,9.81493976 31.8116456,9.97674699 31.8116456,10.7775904 C31.8116456,11.5784337 31.4916456,11.9020482 31.3316456,12.0618072 C31.1716456,12.2215663 30.6916456,12.2236145 30.6916456,12.2236145 C30.6916456,12.2236145 27.3296203,13.026506 25.7296203,12.3833735 C25.3925325,12.2604431 25.0704424,12.0989534 24.7696203,11.9020482 C24.7696203,11.9020482 24.4496203,12.5431325 22.8496203,12.3833735 C22.3675949,12.5431325 21.2475949,12.7049398 20.9275949,12.0618072 C20.6075949,12.2236145 19.8075949,11.9020482 19.8075949,11.9020482 C19.0936399,12.6666656 17.9384688,12.7990637 17.0734177,12.2154217 C16.5934177,12.696747 16.2632911,13.1780723 14.8313924,12.696747 C14.8313924,12.696747 14.1913924,13.4996386 12.4313924,13.0183133 C12.4313924,13.0183133 11.4713924,14.3025301 10.0293671,13.8191566 C10.0293671,13.8191566 9.06936709,15.1033735 7.62936709,14.6220482 C7.46936709,14.7838554 6.18936709,15.746506 5.06936709,14.9436145 C3.94936709,14.1407229 4.42936709,12.5349398 4.42936709,12.5349398 C4.34432314,12.0549746 4.61129095,11.5822882 5.06329114,11.4125301 Z" id="Shape" fill="#F7F7F7"></path>
                    </g>
                </g>
            </g>
        </g>
    </g>
</svg>